<svg width="20" height="20" viewBox="0 0 20 20" fill="none" xmlns="http://www.w3.org/2000/svg">
<path d="M9.58334 2.39584C12.0802 2.39584 14.2708 4.44116 14.2708 6.77241C14.2708 9.18881 12.3232 12.3443 9.58334 16.6638C6.8435 12.3443 4.89584 9.18881 4.89584 6.77241C4.89584 4.44116 7.08647 2.39584 9.58334 2.39584V2.39584ZM9.58334 0.833344C6.30366 0.833344 3.33334 3.49194 3.33334 6.77241C3.33334 10.0521 6.0435 13.9677 9.58334 19.5833C13.1232 13.9677 15.8333 10.0521 15.8333 6.77241C15.8333 3.49194 12.8638 0.833344 9.58334 0.833344V0.833344ZM9.58334 9.42709C8.28881 9.42709 7.23959 8.37788 7.23959 7.08334C7.23959 5.78881 8.28881 4.73959 9.58334 4.73959C10.8779 4.73959 11.9271 5.78881 11.9271 7.08334C11.9271 8.37788 10.8779 9.42709 9.58334 9.42709Z" fill="black"/>
</svg>
