<svg width="20" height="20" viewBox="0 0 20 20" fill="none" xmlns="http://www.w3.org/2000/svg">
<path d="M13.8652 12.318C12.6401 12.9042 12.4068 13.0556 11.5324 13.0556C10.4081 13.0556 9.56011 12.3479 8.24476 12.2424C8.5302 11.7368 8.79827 11.1395 8.93647 10.4179H11.5283V6.94553H8.56561C7.81418 5.47878 7.68293 3.38074 9.32955 3.38074C10.5393 3.38074 10.8449 4.59678 11.0588 5.29127L14.6194 4.76971C14.0715 1.36258 12.1221 0 9.4233 0C5.90991 0 3.27574 2.68765 4.08967 6.94483H2.5V10.4172H4.70082C4.66193 12.0368 3.72993 12.541 2.5 13.5744L4.27927 16.6676C5.09876 16.178 5.95575 15.8863 7.17665 15.8863C8.60659 15.8863 9.94 16.6676 11.879 16.6676C13.3749 16.6579 14.2118 16.1342 15 15.6849L13.8652 12.318V12.318ZM9.52192 14.9022C8.08989 14.5154 6.21896 14.2216 4.8911 14.8592L4.30218 13.8681C6.16409 12.1861 6.28563 10.5846 6.01825 9.02828H3.88897V8.3338H5.87727C5.45294 6.483 4.75638 4.68985 6.1134 2.89669C6.84052 1.93552 8.07739 1.36119 9.4233 1.36119C9.91569 1.36119 12.2158 1.47855 12.9638 3.60715L11.988 3.75021C11.4547 2.66473 10.4609 1.99108 9.32955 1.99108C8.43019 1.99108 7.6357 2.43 7.14817 3.19532C5.9113 5.13779 7.10095 6.57606 7.51695 8.3338H10.1393V9.02828H7.63015C7.71904 10.0346 7.46139 11.1652 6.3391 12.5542L6.994 13.7841C7.91072 13.4737 8.62603 13.6772 9.45594 13.9827C10.5491 14.3848 11.7304 14.6717 13.0436 14.2119L13.3187 15.0168C12.063 15.5467 10.831 15.2564 9.52192 14.9022V14.9022Z" fill="black"/>
</svg>
